<mxfile host="app.diagrams.net" agent="Mozilla/5.0 (Macintosh; Intel Mac OS X 10_15_7) AppleWebKit/537.36 (KHTML, like Gecko) Chrome/130.0.0.0 Safari/537.36" version="24.8.0">
  <diagram name="Page-1" id="PgNont5FCpmDmwBST1Kn">
    <mxGraphModel dx="1281" dy="885" grid="1" gridSize="10" guides="1" tooltips="1" connect="1" arrows="1" fold="1" page="1" pageScale="1" pageWidth="827" pageHeight="1169" math="0" shadow="0">
      <root>
        <mxCell id="0" />
        <mxCell id="1" parent="0" />
        <UserObject label="&lt;a target=&quot;_blank&quot; rel=&quot;noopener noreferrer&quot; href=&quot;https://github.com/0xPolygonID/tutorials/blob/main/mkdocs/docs/imgs/triangle-of-trust-polygonID.png&quot; style=&quot;box-sizing: border-box; background-color: transparent; color: var(--fgColor-accent, var(--color-accent-fg)); text-decoration: underline; text-underline-offset: 0.2rem; font-family: -apple-system, BlinkMacSystemFont, &amp;quot;Segoe UI&amp;quot;, &amp;quot;Noto Sans&amp;quot;, Helvetica, Arial, sans-serif, &amp;quot;Apple Color Emoji&amp;quot;, &amp;quot;Segoe UI Emoji&amp;quot;; font-size: 14px; font-style: normal; font-variant-caps: normal; font-weight: 400; letter-spacing: normal; orphans: auto; text-align: -webkit-center; text-indent: 0px; text-transform: none; white-space: normal; widows: auto; word-spacing: 0px; -webkit-text-stroke-width: 0px;&quot;&gt;&lt;img src=&quot;https://github.com/0xPolygonID/tutorials/raw/main/mkdocs/docs/imgs/triangle-of-trust-polygonID.png&quot; align=&quot;center&quot; width=&quot;500&quot; style=&quot;box-sizing: content-box; border-style: none; max-width: 100%;&quot;&gt;&lt;/a&gt;" link="&lt;a target=&quot;_blank&quot; rel=&quot;noopener noreferrer&quot; href=&quot;https://github.com/0xPolygonID/tutorials/blob/main/mkdocs/docs/imgs/triangle-of-trust-polygonID.png&quot; style=&quot;box-sizing: border-box; background-color: transparent; color: var(--fgColor-accent, var(--color-accent-fg)); text-decoration: underline; text-underline-offset: 0.2rem; font-family: -apple-system, BlinkMacSystemFont, &amp;quot;Segoe UI&amp;quot;, &amp;quot;Noto Sans&amp;quot;, Helvetica, Arial, sans-serif, &amp;quot;Apple Color Emoji&amp;quot;, &amp;quot;Segoe UI Emoji&amp;quot;; font-size: 14px; font-style: normal; font-variant-caps: normal; font-weight: 400; letter-spacing: normal; orphans: auto; text-align: -webkit-center; text-indent: 0px; text-transform: none; white-space: normal; widows: auto; word-spacing: 0px; -webkit-text-stroke-width: 0px;&quot;&gt;&lt;img src=&quot;https://github.com/0xPolygonID/tutorials/raw/main/mkdocs/docs/imgs/triangle-of-trust-polygonID.png&quot; align=&quot;center&quot; width=&quot;500&quot; style=&quot;box-sizing: content-box; border-style: none; max-width: 100%;&quot;&gt;&lt;/a&gt;" id="dj3rOwC9YGY-w_5GUTkS-2">
          <mxCell style="text;whiteSpace=wrap;html=1;" vertex="1" parent="1">
            <mxGeometry x="100" y="130" width="530" height="620" as="geometry" />
          </mxCell>
        </UserObject>
        <mxCell id="dj3rOwC9YGY-w_5GUTkS-3" value="Cloud Strorage Service" style="ellipse;whiteSpace=wrap;html=1;" vertex="1" parent="1">
          <mxGeometry x="140" y="60" width="90" height="60" as="geometry" />
        </mxCell>
        <mxCell id="dj3rOwC9YGY-w_5GUTkS-4" value="Crypto Wallet&lt;div&gt;(Metamask / Reown)&lt;/div&gt;" style="ellipse;whiteSpace=wrap;html=1;" vertex="1" parent="1">
          <mxGeometry x="440" y="60" width="90" height="60" as="geometry" />
        </mxCell>
        <mxCell id="dj3rOwC9YGY-w_5GUTkS-5" value="" style="endArrow=classic;startArrow=classic;html=1;rounded=0;strokeColor=default;" edge="1" parent="1">
          <mxGeometry width="50" height="50" relative="1" as="geometry">
            <mxPoint x="300" y="190" as="sourcePoint" />
            <mxPoint x="230" y="120" as="targetPoint" />
          </mxGeometry>
        </mxCell>
        <mxCell id="dj3rOwC9YGY-w_5GUTkS-6" value="" style="endArrow=classic;startArrow=classic;html=1;rounded=0;strokeColor=default;" edge="1" parent="1">
          <mxGeometry width="50" height="50" relative="1" as="geometry">
            <mxPoint x="390" y="190" as="sourcePoint" />
            <mxPoint x="460" y="120" as="targetPoint" />
          </mxGeometry>
        </mxCell>
        <mxCell id="dj3rOwC9YGY-w_5GUTkS-7" value="Scenario 1&lt;div&gt;Generate BJJ &amp;amp; Crypto Keys&lt;/div&gt;" style="text;html=1;align=left;verticalAlign=middle;resizable=0;points=[];autosize=1;strokeColor=none;fillColor=none;" vertex="1" parent="1">
          <mxGeometry x="120" y="780" width="180" height="40" as="geometry" />
        </mxCell>
        <mxCell id="dj3rOwC9YGY-w_5GUTkS-9" value="Privado Web Wallet" style="shape=umlLifeline;perimeter=lifelinePerimeter;whiteSpace=wrap;html=1;container=1;dropTarget=0;collapsible=0;recursiveResize=0;outlineConnect=0;portConstraint=eastwest;newEdgeStyle={&quot;curved&quot;:0,&quot;rounded&quot;:0};" vertex="1" parent="1">
          <mxGeometry x="120" y="840" width="130" height="350" as="geometry" />
        </mxCell>
        <mxCell id="dj3rOwC9YGY-w_5GUTkS-11" value="" style="html=1;points=[[0,0,0,0,5],[0,1,0,0,-5],[1,0,0,0,5],[1,1,0,0,-5]];perimeter=orthogonalPerimeter;outlineConnect=0;targetShapes=umlLifeline;portConstraint=eastwest;newEdgeStyle={&quot;curved&quot;:0,&quot;rounded&quot;:0};" vertex="1" parent="dj3rOwC9YGY-w_5GUTkS-9">
          <mxGeometry x="59" y="60" width="10" height="260" as="geometry" />
        </mxCell>
        <mxCell id="dj3rOwC9YGY-w_5GUTkS-26" value="" style="html=1;points=[[0,0,0,0,5],[0,1,0,0,-5],[1,0,0,0,5],[1,1,0,0,-5]];perimeter=orthogonalPerimeter;outlineConnect=0;targetShapes=umlLifeline;portConstraint=eastwest;newEdgeStyle={&quot;curved&quot;:0,&quot;rounded&quot;:0};" vertex="1" parent="dj3rOwC9YGY-w_5GUTkS-9">
          <mxGeometry x="66" y="260" width="10" height="40" as="geometry" />
        </mxCell>
        <mxCell id="dj3rOwC9YGY-w_5GUTkS-27" value="Derived following keys from signature&#xa;* BJJ key&#xa;* Ed25519 keys for auth to storage&#xa;* AES256 key to encrypt/decrypt actual encryption key" style="align=left;spacingLeft=2;endArrow=block;rounded=0;edgeStyle=orthogonalEdgeStyle;curved=0;rounded=0;" edge="1" parent="dj3rOwC9YGY-w_5GUTkS-9" target="dj3rOwC9YGY-w_5GUTkS-26">
          <mxGeometry relative="1" as="geometry">
            <mxPoint x="71" y="240" as="sourcePoint" />
            <Array as="points">
              <mxPoint x="101" y="270" />
            </Array>
          </mxGeometry>
        </mxCell>
        <mxCell id="dj3rOwC9YGY-w_5GUTkS-10" value="Crypto Wallet&lt;div&gt;（Metamask / Reown）&lt;/div&gt;" style="shape=umlLifeline;perimeter=lifelinePerimeter;whiteSpace=wrap;html=1;container=1;dropTarget=0;collapsible=0;recursiveResize=0;outlineConnect=0;portConstraint=eastwest;newEdgeStyle={&quot;curved&quot;:0,&quot;rounded&quot;:0};" vertex="1" parent="1">
          <mxGeometry x="360" y="840" width="130" height="270" as="geometry" />
        </mxCell>
        <mxCell id="dj3rOwC9YGY-w_5GUTkS-12" value="" style="html=1;points=[[0,0,0,0,5],[0,1,0,0,-5],[1,0,0,0,5],[1,1,0,0,-5]];perimeter=orthogonalPerimeter;outlineConnect=0;targetShapes=umlLifeline;portConstraint=eastwest;newEdgeStyle={&quot;curved&quot;:0,&quot;rounded&quot;:0};" vertex="1" parent="dj3rOwC9YGY-w_5GUTkS-10">
          <mxGeometry x="60" y="60" width="10" height="180" as="geometry" />
        </mxCell>
        <mxCell id="dj3rOwC9YGY-w_5GUTkS-22" value="" style="html=1;points=[[0,0,0,0,5],[0,1,0,0,-5],[1,0,0,0,5],[1,1,0,0,-5]];perimeter=orthogonalPerimeter;outlineConnect=0;targetShapes=umlLifeline;portConstraint=eastwest;newEdgeStyle={&quot;curved&quot;:0,&quot;rounded&quot;:0};" vertex="1" parent="dj3rOwC9YGY-w_5GUTkS-10">
          <mxGeometry x="66" y="168" width="10" height="40" as="geometry" />
        </mxCell>
        <mxCell id="dj3rOwC9YGY-w_5GUTkS-23" value="Sign message with wallet private key" style="html=1;align=left;spacingLeft=2;endArrow=block;rounded=0;edgeStyle=orthogonalEdgeStyle;curved=0;rounded=0;" edge="1" target="dj3rOwC9YGY-w_5GUTkS-22" parent="dj3rOwC9YGY-w_5GUTkS-10">
          <mxGeometry relative="1" as="geometry">
            <mxPoint x="71" y="148" as="sourcePoint" />
            <Array as="points">
              <mxPoint x="101" y="178" />
            </Array>
          </mxGeometry>
        </mxCell>
        <mxCell id="dj3rOwC9YGY-w_5GUTkS-13" value="" style="endArrow=classic;html=1;rounded=0;" edge="1" parent="1">
          <mxGeometry width="50" height="50" relative="1" as="geometry">
            <mxPoint x="190" y="920" as="sourcePoint" />
            <mxPoint x="420" y="920" as="targetPoint" />
          </mxGeometry>
        </mxCell>
        <mxCell id="dj3rOwC9YGY-w_5GUTkS-15" value="Request to sign a fixed message." style="edgeLabel;align=center;verticalAlign=middle;resizable=0;points=[];" vertex="1" connectable="0" parent="dj3rOwC9YGY-w_5GUTkS-13">
          <mxGeometry x="0.0087" relative="1" as="geometry">
            <mxPoint y="-10" as="offset" />
          </mxGeometry>
        </mxCell>
        <mxCell id="dj3rOwC9YGY-w_5GUTkS-16" value="User" style="shape=umlLifeline;perimeter=lifelinePerimeter;whiteSpace=wrap;html=1;container=1;dropTarget=0;collapsible=0;recursiveResize=0;outlineConnect=0;portConstraint=eastwest;newEdgeStyle={&quot;curved&quot;:0,&quot;rounded&quot;:0};" vertex="1" parent="1">
          <mxGeometry x="600" y="840" width="130" height="190" as="geometry" />
        </mxCell>
        <mxCell id="dj3rOwC9YGY-w_5GUTkS-17" value="" style="html=1;points=[[0,0,0,0,5],[0,1,0,0,-5],[1,0,0,0,5],[1,1,0,0,-5]];perimeter=orthogonalPerimeter;outlineConnect=0;targetShapes=umlLifeline;portConstraint=eastwest;newEdgeStyle={&quot;curved&quot;:0,&quot;rounded&quot;:0};" vertex="1" parent="dj3rOwC9YGY-w_5GUTkS-16">
          <mxGeometry x="60" y="80" width="10" height="60" as="geometry" />
        </mxCell>
        <mxCell id="dj3rOwC9YGY-w_5GUTkS-18" value="" style="endArrow=classic;html=1;rounded=0;" edge="1" parent="1">
          <mxGeometry width="50" height="50" relative="1" as="geometry">
            <mxPoint x="430" y="940" as="sourcePoint" />
            <mxPoint x="660" y="940" as="targetPoint" />
          </mxGeometry>
        </mxCell>
        <mxCell id="dj3rOwC9YGY-w_5GUTkS-19" value="Request signing confirmation" style="edgeLabel;align=center;verticalAlign=middle;resizable=0;points=[];" vertex="1" connectable="0" parent="dj3rOwC9YGY-w_5GUTkS-18">
          <mxGeometry x="0.0087" relative="1" as="geometry">
            <mxPoint y="-10" as="offset" />
          </mxGeometry>
        </mxCell>
        <mxCell id="dj3rOwC9YGY-w_5GUTkS-20" value="" style="endArrow=none;html=1;rounded=0;startArrow=classic;startFill=1;endFill=0;" edge="1" parent="1">
          <mxGeometry width="50" height="50" relative="1" as="geometry">
            <mxPoint x="430" y="970" as="sourcePoint" />
            <mxPoint x="660" y="970" as="targetPoint" />
          </mxGeometry>
        </mxCell>
        <mxCell id="dj3rOwC9YGY-w_5GUTkS-21" value="Signing confirmation" style="edgeLabel;align=center;verticalAlign=middle;resizable=0;points=[];" vertex="1" connectable="0" parent="dj3rOwC9YGY-w_5GUTkS-20">
          <mxGeometry x="0.0087" relative="1" as="geometry">
            <mxPoint y="-10" as="offset" />
          </mxGeometry>
        </mxCell>
        <mxCell id="dj3rOwC9YGY-w_5GUTkS-24" value="" style="endArrow=none;html=1;rounded=0;startArrow=classic;startFill=1;endFill=0;" edge="1" parent="1">
          <mxGeometry width="50" height="50" relative="1" as="geometry">
            <mxPoint x="190" y="1060" as="sourcePoint" />
            <mxPoint x="420" y="1060" as="targetPoint" />
          </mxGeometry>
        </mxCell>
        <mxCell id="dj3rOwC9YGY-w_5GUTkS-25" value="Signature" style="edgeLabel;align=center;verticalAlign=middle;resizable=0;points=[];" vertex="1" connectable="0" parent="dj3rOwC9YGY-w_5GUTkS-24">
          <mxGeometry x="0.0087" relative="1" as="geometry">
            <mxPoint y="-10" as="offset" />
          </mxGeometry>
        </mxCell>
        <mxCell id="dj3rOwC9YGY-w_5GUTkS-28" value="Scenario 2&lt;div&gt;Login / Register to Cloud Storage&amp;nbsp;&lt;/div&gt;&lt;div&gt;(To be confirmed)&lt;/div&gt;" style="text;html=1;align=left;verticalAlign=middle;resizable=0;points=[];autosize=1;strokeColor=none;fillColor=none;" vertex="1" parent="1">
          <mxGeometry x="120" y="1210" width="200" height="60" as="geometry" />
        </mxCell>
        <mxCell id="dj3rOwC9YGY-w_5GUTkS-30" value="Privado Web Wallet" style="shape=umlLifeline;perimeter=lifelinePerimeter;whiteSpace=wrap;html=1;container=1;dropTarget=0;collapsible=0;recursiveResize=0;outlineConnect=0;portConstraint=eastwest;newEdgeStyle={&quot;curved&quot;:0,&quot;rounded&quot;:0};" vertex="1" parent="1">
          <mxGeometry x="120" y="1280" width="130" height="350" as="geometry" />
        </mxCell>
        <mxCell id="dj3rOwC9YGY-w_5GUTkS-31" value="" style="html=1;points=[[0,0,0,0,5],[0,1,0,0,-5],[1,0,0,0,5],[1,1,0,0,-5]];perimeter=orthogonalPerimeter;outlineConnect=0;targetShapes=umlLifeline;portConstraint=eastwest;newEdgeStyle={&quot;curved&quot;:0,&quot;rounded&quot;:0};" vertex="1" parent="dj3rOwC9YGY-w_5GUTkS-30">
          <mxGeometry x="59" y="60" width="10" height="260" as="geometry" />
        </mxCell>
        <mxCell id="dj3rOwC9YGY-w_5GUTkS-36" value="" style="html=1;points=[[0,0,0,0,5],[0,1,0,0,-5],[1,0,0,0,5],[1,1,0,0,-5]];perimeter=orthogonalPerimeter;outlineConnect=0;targetShapes=umlLifeline;portConstraint=eastwest;newEdgeStyle={&quot;curved&quot;:0,&quot;rounded&quot;:0};" vertex="1" parent="dj3rOwC9YGY-w_5GUTkS-30">
          <mxGeometry x="64" y="100" width="10" height="40" as="geometry" />
        </mxCell>
        <mxCell id="dj3rOwC9YGY-w_5GUTkS-37" value="Generate Ed25519 keys from &#xa;Crypto Wallet Signature&#xa;" style="align=left;spacingLeft=2;endArrow=block;rounded=0;edgeStyle=orthogonalEdgeStyle;curved=0;rounded=0;" edge="1" parent="dj3rOwC9YGY-w_5GUTkS-30" target="dj3rOwC9YGY-w_5GUTkS-36">
          <mxGeometry x="0.1765" y="1" relative="1" as="geometry">
            <mxPoint x="69" y="80" as="sourcePoint" />
            <Array as="points">
              <mxPoint x="99" y="110" />
            </Array>
            <mxPoint as="offset" />
          </mxGeometry>
        </mxCell>
        <mxCell id="dj3rOwC9YGY-w_5GUTkS-34" value="Cloud Storage" style="shape=umlLifeline;perimeter=lifelinePerimeter;whiteSpace=wrap;html=1;container=1;dropTarget=0;collapsible=0;recursiveResize=0;outlineConnect=0;portConstraint=eastwest;newEdgeStyle={&quot;curved&quot;:0,&quot;rounded&quot;:0};" vertex="1" parent="1">
          <mxGeometry x="360" y="1280" width="130" height="350" as="geometry" />
        </mxCell>
        <mxCell id="dj3rOwC9YGY-w_5GUTkS-35" value="" style="html=1;points=[[0,0,0,0,5],[0,1,0,0,-5],[1,0,0,0,5],[1,1,0,0,-5]];perimeter=orthogonalPerimeter;outlineConnect=0;targetShapes=umlLifeline;portConstraint=eastwest;newEdgeStyle={&quot;curved&quot;:0,&quot;rounded&quot;:0};" vertex="1" parent="dj3rOwC9YGY-w_5GUTkS-34">
          <mxGeometry x="59" y="60" width="10" height="260" as="geometry" />
        </mxCell>
        <mxCell id="dj3rOwC9YGY-w_5GUTkS-40" value="" style="html=1;points=[[0,0,0,0,5],[0,1,0,0,-5],[1,0,0,0,5],[1,1,0,0,-5]];perimeter=orthogonalPerimeter;outlineConnect=0;targetShapes=umlLifeline;portConstraint=eastwest;newEdgeStyle={&quot;curved&quot;:0,&quot;rounded&quot;:0};" vertex="1" parent="dj3rOwC9YGY-w_5GUTkS-34">
          <mxGeometry x="64" y="205" width="10" height="40" as="geometry" />
        </mxCell>
        <mxCell id="dj3rOwC9YGY-w_5GUTkS-41" value="Initial Identity Storage data" style="align=left;spacingLeft=2;endArrow=block;rounded=0;edgeStyle=orthogonalEdgeStyle;curved=0;rounded=0;" edge="1" parent="dj3rOwC9YGY-w_5GUTkS-34" target="dj3rOwC9YGY-w_5GUTkS-40">
          <mxGeometry x="0.0588" y="11" relative="1" as="geometry">
            <mxPoint x="69" y="185" as="sourcePoint" />
            <Array as="points">
              <mxPoint x="99" y="215" />
            </Array>
            <mxPoint as="offset" />
          </mxGeometry>
        </mxCell>
        <mxCell id="dj3rOwC9YGY-w_5GUTkS-38" value="" style="endArrow=classic;html=1;rounded=0;" edge="1" parent="1">
          <mxGeometry width="50" height="50" relative="1" as="geometry">
            <mxPoint x="190" y="1440" as="sourcePoint" />
            <mxPoint x="420" y="1440" as="targetPoint" />
          </mxGeometry>
        </mxCell>
        <mxCell id="dj3rOwC9YGY-w_5GUTkS-39" value="Login / Register using Ed25519 &#xa;keys &amp; Signature " style="edgeLabel;align=center;verticalAlign=middle;resizable=0;points=[];" vertex="1" connectable="0" parent="dj3rOwC9YGY-w_5GUTkS-38">
          <mxGeometry x="0.0087" relative="1" as="geometry">
            <mxPoint y="-20" as="offset" />
          </mxGeometry>
        </mxCell>
        <mxCell id="dj3rOwC9YGY-w_5GUTkS-42" value="" style="endArrow=none;html=1;rounded=0;startArrow=classic;startFill=1;endFill=0;" edge="1" parent="1">
          <mxGeometry width="50" height="50" relative="1" as="geometry">
            <mxPoint x="190" y="1550" as="sourcePoint" />
            <mxPoint x="420" y="1550" as="targetPoint" />
          </mxGeometry>
        </mxCell>
        <mxCell id="dj3rOwC9YGY-w_5GUTkS-43" value="Encrypted VC &amp; Encrypt Keys" style="edgeLabel;align=center;verticalAlign=middle;resizable=0;points=[];" vertex="1" connectable="0" parent="dj3rOwC9YGY-w_5GUTkS-42">
          <mxGeometry x="0.0087" relative="1" as="geometry">
            <mxPoint y="-10" as="offset" />
          </mxGeometry>
        </mxCell>
        <mxCell id="dj3rOwC9YGY-w_5GUTkS-44" value="Scenario 3&lt;div&gt;Issue VC &amp;amp; send to Cloud Storage&amp;nbsp;&lt;/div&gt;" style="text;html=1;align=left;verticalAlign=middle;resizable=0;points=[];autosize=1;strokeColor=none;fillColor=none;" vertex="1" parent="1">
          <mxGeometry x="120" y="1660" width="210" height="40" as="geometry" />
        </mxCell>
        <mxCell id="dj3rOwC9YGY-w_5GUTkS-45" value="Privado Web Wallet" style="shape=umlLifeline;perimeter=lifelinePerimeter;whiteSpace=wrap;html=1;container=1;dropTarget=0;collapsible=0;recursiveResize=0;outlineConnect=0;portConstraint=eastwest;newEdgeStyle={&quot;curved&quot;:0,&quot;rounded&quot;:0};" vertex="1" parent="1">
          <mxGeometry x="120" y="1720" width="130" height="680" as="geometry" />
        </mxCell>
        <mxCell id="dj3rOwC9YGY-w_5GUTkS-46" value="" style="html=1;points=[[0,0,0,0,5],[0,1,0,0,-5],[1,0,0,0,5],[1,1,0,0,-5]];perimeter=orthogonalPerimeter;outlineConnect=0;targetShapes=umlLifeline;portConstraint=eastwest;newEdgeStyle={&quot;curved&quot;:0,&quot;rounded&quot;:0};" vertex="1" parent="dj3rOwC9YGY-w_5GUTkS-45">
          <mxGeometry x="59" y="60" width="10" height="580" as="geometry" />
        </mxCell>
        <mxCell id="dj3rOwC9YGY-w_5GUTkS-47" value="" style="html=1;points=[[0,0,0,0,5],[0,1,0,0,-5],[1,0,0,0,5],[1,1,0,0,-5]];perimeter=orthogonalPerimeter;outlineConnect=0;targetShapes=umlLifeline;portConstraint=eastwest;newEdgeStyle={&quot;curved&quot;:0,&quot;rounded&quot;:0};" vertex="1" parent="dj3rOwC9YGY-w_5GUTkS-45">
          <mxGeometry x="64" y="100" width="10" height="40" as="geometry" />
        </mxCell>
        <mxCell id="dj3rOwC9YGY-w_5GUTkS-48" value="Generate BJJ/Ed25519/AES keys from &#xa;Crypto Wallet Signature&#xa;(AES Key 1)&#xa;" style="align=left;spacingLeft=2;endArrow=block;rounded=0;edgeStyle=orthogonalEdgeStyle;curved=0;rounded=0;" edge="1" parent="dj3rOwC9YGY-w_5GUTkS-45" target="dj3rOwC9YGY-w_5GUTkS-47">
          <mxGeometry x="0.1765" y="1" relative="1" as="geometry">
            <mxPoint x="69" y="80" as="sourcePoint" />
            <Array as="points">
              <mxPoint x="99" y="110" />
            </Array>
            <mxPoint as="offset" />
          </mxGeometry>
        </mxCell>
        <mxCell id="dj3rOwC9YGY-w_5GUTkS-65" value="" style="html=1;points=[[0,0,0,0,5],[0,1,0,0,-5],[1,0,0,0,5],[1,1,0,0,-5]];perimeter=orthogonalPerimeter;outlineConnect=0;targetShapes=umlLifeline;portConstraint=eastwest;newEdgeStyle={&quot;curved&quot;:0,&quot;rounded&quot;:0};" vertex="1" parent="dj3rOwC9YGY-w_5GUTkS-45">
          <mxGeometry x="64" y="239" width="10" height="40" as="geometry" />
        </mxCell>
        <mxCell id="dj3rOwC9YGY-w_5GUTkS-66" value="Generate Random AES Encrypted Key&#xa;(AES Key 2)" style="align=left;spacingLeft=2;endArrow=block;rounded=0;edgeStyle=orthogonalEdgeStyle;curved=0;rounded=0;" edge="1" parent="dj3rOwC9YGY-w_5GUTkS-45" target="dj3rOwC9YGY-w_5GUTkS-65">
          <mxGeometry x="0.1765" y="1" relative="1" as="geometry">
            <mxPoint x="69" y="219" as="sourcePoint" />
            <Array as="points">
              <mxPoint x="99" y="249" />
            </Array>
            <mxPoint as="offset" />
          </mxGeometry>
        </mxCell>
        <mxCell id="dj3rOwC9YGY-w_5GUTkS-67" value="" style="html=1;points=[[0,0,0,0,5],[0,1,0,0,-5],[1,0,0,0,5],[1,1,0,0,-5]];perimeter=orthogonalPerimeter;outlineConnect=0;targetShapes=umlLifeline;portConstraint=eastwest;newEdgeStyle={&quot;curved&quot;:0,&quot;rounded&quot;:0};" vertex="1" parent="dj3rOwC9YGY-w_5GUTkS-45">
          <mxGeometry x="64" y="329" width="10" height="40" as="geometry" />
        </mxCell>
        <mxCell id="dj3rOwC9YGY-w_5GUTkS-68" value="Encrypt the recently obtained VC &#xa;using AES Key 2." style="align=left;spacingLeft=2;endArrow=block;rounded=0;edgeStyle=orthogonalEdgeStyle;curved=0;rounded=0;" edge="1" parent="dj3rOwC9YGY-w_5GUTkS-45" target="dj3rOwC9YGY-w_5GUTkS-67">
          <mxGeometry x="0.1765" y="1" relative="1" as="geometry">
            <mxPoint x="69" y="309" as="sourcePoint" />
            <Array as="points">
              <mxPoint x="99" y="339" />
            </Array>
            <mxPoint as="offset" />
          </mxGeometry>
        </mxCell>
        <mxCell id="dj3rOwC9YGY-w_5GUTkS-69" value="" style="html=1;points=[[0,0,0,0,5],[0,1,0,0,-5],[1,0,0,0,5],[1,1,0,0,-5]];perimeter=orthogonalPerimeter;outlineConnect=0;targetShapes=umlLifeline;portConstraint=eastwest;newEdgeStyle={&quot;curved&quot;:0,&quot;rounded&quot;:0};" vertex="1" parent="dj3rOwC9YGY-w_5GUTkS-45">
          <mxGeometry x="64" y="409" width="10" height="40" as="geometry" />
        </mxCell>
        <mxCell id="dj3rOwC9YGY-w_5GUTkS-70" value="Encrypt AES Key 2 with AES Key 1&#xa;(Encrypted encrypt key)" style="align=left;spacingLeft=2;endArrow=block;rounded=0;edgeStyle=orthogonalEdgeStyle;curved=0;rounded=0;" edge="1" parent="dj3rOwC9YGY-w_5GUTkS-45" target="dj3rOwC9YGY-w_5GUTkS-69">
          <mxGeometry x="0.1765" y="1" relative="1" as="geometry">
            <mxPoint x="69" y="389" as="sourcePoint" />
            <Array as="points">
              <mxPoint x="99" y="419" />
            </Array>
            <mxPoint as="offset" />
          </mxGeometry>
        </mxCell>
        <mxCell id="dj3rOwC9YGY-w_5GUTkS-49" value="Issuer" style="shape=umlLifeline;perimeter=lifelinePerimeter;whiteSpace=wrap;html=1;container=1;dropTarget=0;collapsible=0;recursiveResize=0;outlineConnect=0;portConstraint=eastwest;newEdgeStyle={&quot;curved&quot;:0,&quot;rounded&quot;:0};" vertex="1" parent="1">
          <mxGeometry x="360" y="1720" width="130" height="220" as="geometry" />
        </mxCell>
        <mxCell id="dj3rOwC9YGY-w_5GUTkS-50" value="" style="html=1;points=[[0,0,0,0,5],[0,1,0,0,-5],[1,0,0,0,5],[1,1,0,0,-5]];perimeter=orthogonalPerimeter;outlineConnect=0;targetShapes=umlLifeline;portConstraint=eastwest;newEdgeStyle={&quot;curved&quot;:0,&quot;rounded&quot;:0};" vertex="1" parent="dj3rOwC9YGY-w_5GUTkS-49">
          <mxGeometry x="59" y="60" width="10" height="140" as="geometry" />
        </mxCell>
        <mxCell id="dj3rOwC9YGY-w_5GUTkS-57" value="Cloud Storage" style="shape=umlLifeline;perimeter=lifelinePerimeter;whiteSpace=wrap;html=1;container=1;dropTarget=0;collapsible=0;recursiveResize=0;outlineConnect=0;portConstraint=eastwest;newEdgeStyle={&quot;curved&quot;:0,&quot;rounded&quot;:0};" vertex="1" parent="1">
          <mxGeometry x="600" y="1720" width="130" height="680" as="geometry" />
        </mxCell>
        <mxCell id="dj3rOwC9YGY-w_5GUTkS-58" value="" style="html=1;points=[[0,0,0,0,5],[0,1,0,0,-5],[1,0,0,0,5],[1,1,0,0,-5]];perimeter=orthogonalPerimeter;outlineConnect=0;targetShapes=umlLifeline;portConstraint=eastwest;newEdgeStyle={&quot;curved&quot;:0,&quot;rounded&quot;:0};" vertex="1" parent="dj3rOwC9YGY-w_5GUTkS-57">
          <mxGeometry x="59" y="470" width="10" height="160" as="geometry" />
        </mxCell>
        <mxCell id="dj3rOwC9YGY-w_5GUTkS-61" value="" style="endArrow=classic;html=1;rounded=0;startArrow=classic;startFill=1;" edge="1" parent="1">
          <mxGeometry width="50" height="50" relative="1" as="geometry">
            <mxPoint x="190" y="1894.5" as="sourcePoint" />
            <mxPoint x="420" y="1894.5" as="targetPoint" />
          </mxGeometry>
        </mxCell>
        <mxCell id="dj3rOwC9YGY-w_5GUTkS-62" value="Fetch VC from Issuer&#xa;(Same process as on mobile app)" style="edgeLabel;align=left;verticalAlign=middle;resizable=0;points=[];labelBorderColor=none;labelBackgroundColor=default;" vertex="1" connectable="0" parent="dj3rOwC9YGY-w_5GUTkS-61">
          <mxGeometry x="0.0087" relative="1" as="geometry">
            <mxPoint x="-76" y="-20" as="offset" />
          </mxGeometry>
        </mxCell>
        <mxCell id="dj3rOwC9YGY-w_5GUTkS-63" value="" style="endArrow=classic;html=1;rounded=0;" edge="1" parent="1">
          <mxGeometry width="50" height="50" relative="1" as="geometry">
            <mxPoint x="190" y="2210" as="sourcePoint" />
            <mxPoint x="660" y="2210" as="targetPoint" />
          </mxGeometry>
        </mxCell>
        <mxCell id="dj3rOwC9YGY-w_5GUTkS-64" value="Login / Register using Ed25519 &#xa;keys &amp; Signature " style="edgeLabel;align=center;verticalAlign=middle;resizable=0;points=[];" vertex="1" connectable="0" parent="dj3rOwC9YGY-w_5GUTkS-63">
          <mxGeometry x="0.0087" relative="1" as="geometry">
            <mxPoint x="-2" y="-20" as="offset" />
          </mxGeometry>
        </mxCell>
        <mxCell id="dj3rOwC9YGY-w_5GUTkS-71" value="" style="endArrow=classic;html=1;rounded=0;" edge="1" parent="1">
          <mxGeometry width="50" height="50" relative="1" as="geometry">
            <mxPoint x="190" y="2280" as="sourcePoint" />
            <mxPoint x="660" y="2280" as="targetPoint" />
          </mxGeometry>
        </mxCell>
        <mxCell id="dj3rOwC9YGY-w_5GUTkS-72" value="Upload following data signed by Ed25519 keys&#xa;1. Encrypted VC (with AES Key 2)&#xa;2. Encrypted AES Key2 (with AES key 1)&#xa;3. VC tag (tag for non PII data, such as credential type)" style="edgeLabel;align=left;verticalAlign=middle;resizable=0;points=[];" vertex="1" connectable="0" parent="dj3rOwC9YGY-w_5GUTkS-71">
          <mxGeometry x="0.0087" relative="1" as="geometry">
            <mxPoint x="-147" y="-30" as="offset" />
          </mxGeometry>
        </mxCell>
        <mxCell id="dj3rOwC9YGY-w_5GUTkS-73" value="Scenario 4&lt;div&gt;Generate VP&lt;/div&gt;" style="text;html=1;align=left;verticalAlign=middle;resizable=0;points=[];autosize=1;strokeColor=none;fillColor=none;" vertex="1" parent="1">
          <mxGeometry x="120" y="2430" width="90" height="40" as="geometry" />
        </mxCell>
        <mxCell id="dj3rOwC9YGY-w_5GUTkS-74" value="Privado Web Wallet" style="shape=umlLifeline;perimeter=lifelinePerimeter;whiteSpace=wrap;html=1;container=1;dropTarget=0;collapsible=0;recursiveResize=0;outlineConnect=0;portConstraint=eastwest;newEdgeStyle={&quot;curved&quot;:0,&quot;rounded&quot;:0};" vertex="1" parent="1">
          <mxGeometry x="120" y="2480" width="130" height="680" as="geometry" />
        </mxCell>
        <mxCell id="dj3rOwC9YGY-w_5GUTkS-75" value="" style="html=1;points=[[0,0,0,0,5],[0,1,0,0,-5],[1,0,0,0,5],[1,1,0,0,-5]];perimeter=orthogonalPerimeter;outlineConnect=0;targetShapes=umlLifeline;portConstraint=eastwest;newEdgeStyle={&quot;curved&quot;:0,&quot;rounded&quot;:0};" vertex="1" parent="dj3rOwC9YGY-w_5GUTkS-74">
          <mxGeometry x="59" y="60" width="10" height="520" as="geometry" />
        </mxCell>
        <mxCell id="dj3rOwC9YGY-w_5GUTkS-76" value="" style="html=1;points=[[0,0,0,0,5],[0,1,0,0,-5],[1,0,0,0,5],[1,1,0,0,-5]];perimeter=orthogonalPerimeter;outlineConnect=0;targetShapes=umlLifeline;portConstraint=eastwest;newEdgeStyle={&quot;curved&quot;:0,&quot;rounded&quot;:0};" vertex="1" parent="dj3rOwC9YGY-w_5GUTkS-74">
          <mxGeometry x="64" y="100" width="10" height="40" as="geometry" />
        </mxCell>
        <mxCell id="dj3rOwC9YGY-w_5GUTkS-77" value="Generate BJJ/Ed25519/AES keys from &#xa;Crypto Wallet Signature&#xa;(AES Key 1)&#xa;" style="align=left;spacingLeft=2;endArrow=block;rounded=0;edgeStyle=orthogonalEdgeStyle;curved=0;rounded=0;" edge="1" parent="dj3rOwC9YGY-w_5GUTkS-74" target="dj3rOwC9YGY-w_5GUTkS-76">
          <mxGeometry x="0.1765" y="1" relative="1" as="geometry">
            <mxPoint x="69" y="80" as="sourcePoint" />
            <Array as="points">
              <mxPoint x="99" y="110" />
            </Array>
            <mxPoint as="offset" />
          </mxGeometry>
        </mxCell>
        <mxCell id="dj3rOwC9YGY-w_5GUTkS-98" value="" style="html=1;points=[[0,0,0,0,5],[0,1,0,0,-5],[1,0,0,0,5],[1,1,0,0,-5]];perimeter=orthogonalPerimeter;outlineConnect=0;targetShapes=umlLifeline;portConstraint=eastwest;newEdgeStyle={&quot;curved&quot;:0,&quot;rounded&quot;:0};" vertex="1" parent="dj3rOwC9YGY-w_5GUTkS-74">
          <mxGeometry x="63" y="331.5" width="10" height="40" as="geometry" />
        </mxCell>
        <mxCell id="dj3rOwC9YGY-w_5GUTkS-99" value="Decrypt each VC&#39;s AES Key 2 using&#xa;AES Key1" style="align=left;spacingLeft=2;endArrow=block;rounded=0;edgeStyle=orthogonalEdgeStyle;curved=0;rounded=0;" edge="1" parent="dj3rOwC9YGY-w_5GUTkS-74" target="dj3rOwC9YGY-w_5GUTkS-98">
          <mxGeometry x="0.1765" y="1" relative="1" as="geometry">
            <mxPoint x="68" y="311.5" as="sourcePoint" />
            <Array as="points">
              <mxPoint x="98" y="341.5" />
            </Array>
            <mxPoint as="offset" />
          </mxGeometry>
        </mxCell>
        <mxCell id="dj3rOwC9YGY-w_5GUTkS-100" value="" style="html=1;points=[[0,0,0,0,5],[0,1,0,0,-5],[1,0,0,0,5],[1,1,0,0,-5]];perimeter=orthogonalPerimeter;outlineConnect=0;targetShapes=umlLifeline;portConstraint=eastwest;newEdgeStyle={&quot;curved&quot;:0,&quot;rounded&quot;:0};" vertex="1" parent="dj3rOwC9YGY-w_5GUTkS-74">
          <mxGeometry x="63" y="411.5" width="10" height="40" as="geometry" />
        </mxCell>
        <mxCell id="dj3rOwC9YGY-w_5GUTkS-101" value="Decrypt each VC using &#xa;decrypted AES Key 2" style="align=left;spacingLeft=2;endArrow=block;rounded=0;edgeStyle=orthogonalEdgeStyle;curved=0;rounded=0;" edge="1" parent="dj3rOwC9YGY-w_5GUTkS-74" target="dj3rOwC9YGY-w_5GUTkS-100">
          <mxGeometry x="0.1765" y="1" relative="1" as="geometry">
            <mxPoint x="68" y="391.5" as="sourcePoint" />
            <Array as="points">
              <mxPoint x="98" y="421.5" />
            </Array>
            <mxPoint as="offset" />
          </mxGeometry>
        </mxCell>
        <mxCell id="dj3rOwC9YGY-w_5GUTkS-111" value="" style="html=1;points=[[0,0,0,0,5],[0,1,0,0,-5],[1,0,0,0,5],[1,1,0,0,-5]];perimeter=orthogonalPerimeter;outlineConnect=0;targetShapes=umlLifeline;portConstraint=eastwest;newEdgeStyle={&quot;curved&quot;:0,&quot;rounded&quot;:0};" vertex="1" parent="dj3rOwC9YGY-w_5GUTkS-74">
          <mxGeometry x="64" y="490" width="10" height="40" as="geometry" />
        </mxCell>
        <mxCell id="dj3rOwC9YGY-w_5GUTkS-112" value="Generate VP&#xa;(Same process as on mobile app)" style="align=left;spacingLeft=2;endArrow=block;rounded=0;edgeStyle=orthogonalEdgeStyle;curved=0;rounded=0;" edge="1" parent="dj3rOwC9YGY-w_5GUTkS-74" target="dj3rOwC9YGY-w_5GUTkS-111">
          <mxGeometry x="0.1765" y="1" relative="1" as="geometry">
            <mxPoint x="69" y="470" as="sourcePoint" />
            <Array as="points">
              <mxPoint x="99" y="500" />
            </Array>
            <mxPoint as="offset" />
          </mxGeometry>
        </mxCell>
        <mxCell id="dj3rOwC9YGY-w_5GUTkS-84" value="Cloud Storage" style="shape=umlLifeline;perimeter=lifelinePerimeter;whiteSpace=wrap;html=1;container=1;dropTarget=0;collapsible=0;recursiveResize=0;outlineConnect=0;portConstraint=eastwest;newEdgeStyle={&quot;curved&quot;:0,&quot;rounded&quot;:0};" vertex="1" parent="1">
          <mxGeometry x="360" y="2480" width="130" height="530" as="geometry" />
        </mxCell>
        <mxCell id="dj3rOwC9YGY-w_5GUTkS-85" value="" style="html=1;points=[[0,0,0,0,5],[0,1,0,0,-5],[1,0,0,0,5],[1,1,0,0,-5]];perimeter=orthogonalPerimeter;outlineConnect=0;targetShapes=umlLifeline;portConstraint=eastwest;newEdgeStyle={&quot;curved&quot;:0,&quot;rounded&quot;:0};" vertex="1" parent="dj3rOwC9YGY-w_5GUTkS-84">
          <mxGeometry x="59" y="60" width="10" height="420" as="geometry" />
        </mxCell>
        <mxCell id="dj3rOwC9YGY-w_5GUTkS-86" value="Verifier" style="shape=umlLifeline;perimeter=lifelinePerimeter;whiteSpace=wrap;html=1;container=1;dropTarget=0;collapsible=0;recursiveResize=0;outlineConnect=0;portConstraint=eastwest;newEdgeStyle={&quot;curved&quot;:0,&quot;rounded&quot;:0};" vertex="1" parent="1">
          <mxGeometry x="600" y="2480" width="130" height="680" as="geometry" />
        </mxCell>
        <mxCell id="dj3rOwC9YGY-w_5GUTkS-102" value="" style="html=1;points=[[0,0,0,0,5],[0,1,0,0,-5],[1,0,0,0,5],[1,1,0,0,-5]];perimeter=orthogonalPerimeter;outlineConnect=0;targetShapes=umlLifeline;portConstraint=eastwest;newEdgeStyle={&quot;curved&quot;:0,&quot;rounded&quot;:0};" vertex="1" parent="dj3rOwC9YGY-w_5GUTkS-86">
          <mxGeometry x="60" y="150" width="10" height="500" as="geometry" />
        </mxCell>
        <mxCell id="dj3rOwC9YGY-w_5GUTkS-115" value="" style="html=1;points=[[0,0,0,0,5],[0,1,0,0,-5],[1,0,0,0,5],[1,1,0,0,-5]];perimeter=orthogonalPerimeter;outlineConnect=0;targetShapes=umlLifeline;portConstraint=eastwest;newEdgeStyle={&quot;curved&quot;:0,&quot;rounded&quot;:0};" vertex="1" parent="dj3rOwC9YGY-w_5GUTkS-86">
          <mxGeometry x="65" y="600" width="10" height="40" as="geometry" />
        </mxCell>
        <mxCell id="dj3rOwC9YGY-w_5GUTkS-116" value="Verify VP on chain / off chain" style="align=left;spacingLeft=2;endArrow=block;rounded=0;edgeStyle=orthogonalEdgeStyle;curved=0;rounded=0;" edge="1" parent="dj3rOwC9YGY-w_5GUTkS-86" target="dj3rOwC9YGY-w_5GUTkS-115">
          <mxGeometry x="0.1765" y="1" relative="1" as="geometry">
            <mxPoint x="70" y="580" as="sourcePoint" />
            <Array as="points">
              <mxPoint x="100" y="610" />
            </Array>
            <mxPoint as="offset" />
          </mxGeometry>
        </mxCell>
        <mxCell id="dj3rOwC9YGY-w_5GUTkS-103" value="" style="endArrow=classic;html=1;rounded=0;" edge="1" parent="1">
          <mxGeometry width="50" height="50" relative="1" as="geometry">
            <mxPoint x="190" y="2640" as="sourcePoint" />
            <mxPoint x="660" y="2640" as="targetPoint" />
          </mxGeometry>
        </mxCell>
        <mxCell id="dj3rOwC9YGY-w_5GUTkS-104" value="Get SDR / Schema" style="edgeLabel;align=center;verticalAlign=middle;resizable=0;points=[];" vertex="1" connectable="0" parent="dj3rOwC9YGY-w_5GUTkS-103">
          <mxGeometry x="0.0087" relative="1" as="geometry">
            <mxPoint x="-2" y="-13" as="offset" />
          </mxGeometry>
        </mxCell>
        <mxCell id="dj3rOwC9YGY-w_5GUTkS-88" value="" style="endArrow=classic;html=1;rounded=0;startArrow=classic;startFill=1;" edge="1" parent="1">
          <mxGeometry width="50" height="50" relative="1" as="geometry">
            <mxPoint x="189" y="2690" as="sourcePoint" />
            <mxPoint x="419" y="2690" as="targetPoint" />
          </mxGeometry>
        </mxCell>
        <mxCell id="dj3rOwC9YGY-w_5GUTkS-89" value="Login / Register using Ed25519 &#xa;keys &amp; Signature " style="edgeLabel;align=center;verticalAlign=middle;resizable=0;points=[];labelBorderColor=none;labelBackgroundColor=default;" vertex="1" connectable="0" parent="dj3rOwC9YGY-w_5GUTkS-88">
          <mxGeometry x="0.0087" relative="1" as="geometry">
            <mxPoint y="-20" as="offset" />
          </mxGeometry>
        </mxCell>
        <mxCell id="dj3rOwC9YGY-w_5GUTkS-94" value="" style="endArrow=none;html=1;rounded=0;startArrow=classic;startFill=1;endFill=0;" edge="1" parent="1">
          <mxGeometry width="50" height="50" relative="1" as="geometry">
            <mxPoint x="189" y="2760" as="sourcePoint" />
            <mxPoint x="419" y="2760" as="targetPoint" />
          </mxGeometry>
        </mxCell>
        <mxCell id="dj3rOwC9YGY-w_5GUTkS-95" value="Encrypted data linked to Ed25519 keys&#xa;（filtered with non-PII-data tags）&#xa;1. Encrypted VC (with AES Key 2)&#xa;2. Encrypted AES Key2 (with AES key 1)" style="edgeLabel;align=left;verticalAlign=middle;resizable=0;points=[];" vertex="1" connectable="0" parent="dj3rOwC9YGY-w_5GUTkS-94">
          <mxGeometry x="0.0087" relative="1" as="geometry">
            <mxPoint x="-96" y="-30" as="offset" />
          </mxGeometry>
        </mxCell>
        <mxCell id="dj3rOwC9YGY-w_5GUTkS-113" value="" style="endArrow=classic;html=1;rounded=0;" edge="1" parent="1">
          <mxGeometry width="50" height="50" relative="1" as="geometry">
            <mxPoint x="190" y="3040" as="sourcePoint" />
            <mxPoint x="660" y="3040" as="targetPoint" />
          </mxGeometry>
        </mxCell>
        <mxCell id="dj3rOwC9YGY-w_5GUTkS-114" value="Send VP to verify" style="edgeLabel;align=center;verticalAlign=middle;resizable=0;points=[];" vertex="1" connectable="0" parent="dj3rOwC9YGY-w_5GUTkS-113">
          <mxGeometry x="0.0087" relative="1" as="geometry">
            <mxPoint x="-2" y="-13" as="offset" />
          </mxGeometry>
        </mxCell>
      </root>
    </mxGraphModel>
  </diagram>
</mxfile>
